<svg width="24" height="24" viewBox="0 0 24 24" fill="none" xmlns="http://www.w3.org/2000/svg">
<path d="M7 11.5882C7 9.42565 7 8.34359 7.7032 7.67218C8.4056 7 9.5376 7 11.8 7H14.2C16.4624 7 17.5944 7 18.2968 7.67218C19 8.34359 19 9.42565 19 11.5882V15.4118C19 17.5744 19 18.6564 18.2968 19.3278C17.5944 20 16.4624 20 14.2 20H11.8C9.5376 20 8.4056 20 7.7032 19.3278C7 18.6564 7 17.5744 7 15.4118V11.5882Z" stroke="white" stroke-width="1.2"/>
<path d="M6.4 18C5.76348 18 5.15303 17.7397 4.70294 17.2764C4.25286 16.8131 4 16.1847 4 15.5294V10.5882C4 7.48271 4 5.92953 4.9376 4.96518C5.8752 4.00082 7.3832 4 10.4 4H13.6C14.2365 4 14.847 4.26029 15.2971 4.72362C15.7471 5.18694 16 5.81535 16 6.47059" stroke="white" stroke-width="1.2"/>
</svg>
