<svg width="13" height="13" viewBox="0 0 13 13" fill="none" xmlns="http://www.w3.org/2000/svg">
<path d="M7.93039 10.1069C7.83539 10.1069 7.74039 10.0719 7.66539 9.9969C7.52039 9.8519 7.52039 9.6119 7.66539 9.4669L10.4354 6.6969L7.66539 3.9269C7.52039 3.7819 7.52039 3.5419 7.66539 3.3969C7.81039 3.2519 8.05039 3.2519 8.19539 3.3969L11.2304 6.4319C11.3754 6.5769 11.3754 6.8169 11.2304 6.9619L8.19539 9.9969C8.12039 10.0719 8.02539 10.1069 7.93039 10.1069Z" fill="white"/>
<path d="M10.8803 7.07233H2.46533C2.26033 7.07233 2.09033 6.90233 2.09033 6.69733C2.09033 6.49233 2.26033 6.32233 2.46533 6.32233H10.8803C11.0853 6.32233 11.2553 6.49233 11.2553 6.69733C11.2553 6.90233 11.0853 7.07233 10.8803 7.07233Z" fill="white"/>
</svg>
