<svg width="20" height="21" viewBox="0 0 20 21" fill="none" xmlns="http://www.w3.org/2000/svg">
<path d="M17.5 5.5H4.16667C3.45083 5.5 2.77333 5.19 2.30417 4.6675C2.7625 4.15583 3.42833 3.83333 4.16667 3.83333H19.1667C20.2567 3.82833 20.2558 2.17083 19.1667 2.16667H4.16667C1.86583 2.16667 0 4.0325 0 6.33333V14.6667C0 16.9675 1.86583 18.8333 4.16667 18.8333H17.5C18.8808 18.8333 20 17.7142 20 16.3333V8C20 6.61917 18.8808 5.5 17.5 5.5ZM16.6667 13C15.5767 12.995 15.5767 11.3383 16.6667 11.3333C17.7567 11.3383 17.7567 12.995 16.6667 13Z" fill="white"/>
</svg>
